<?xml version="1.0" encoding="utf-8"?>
<!-- Generator: Adobe Illustrator 18.1.1, SVG Export Plug-In . SVG Version: 6.00 Build 0)  -->
<svg version="1.1" id="Слой_1" xmlns="http://www.w3.org/2000/svg" xmlns:xlink="http://www.w3.org/1999/xlink" x="0px" y="0px"
	 viewBox="0 0 595.3 841.9" enable-background="new 0 0 595.3 841.9" xml:space="preserve">
<path fill="#FF9817" d="M314.2,450.7h-19.8c-2.2,0-3.9-1.8-3.9-4.1v-12.1h-11.6c-2.2,0-3.9-1.8-3.9-4.1v-20.7c0-2.3,1.8-4.1,3.9-4.1
	h11.6v-12.1c0-2.3,1.8-4.1,3.9-4.1h19.8c2.2,0,3.9,1.8,3.9,4.1v12.1h11.6c2.2,0,3.9,1.8,3.9,4.1v20.7c0,2.2-1.8,4.1-3.9,4.1h-11.6
	v12.1C318.1,448.9,316.3,450.7,314.2,450.7L314.2,450.7z"/>
<path fill="#FF9817" d="M314.4,379.2H245c-4.4,0-7.9-3.5-7.9-7.9v-5.2c0-7.9,6.4-14.3,14.3-14.3H308c7.9,0,14.3,6.4,14.3,14.3v5.2
	C322.3,375.7,318.7,379.2,314.4,379.2z"/>
<path fill="#FF9817" d="M237.1,429.4v-63.3c0-7.9,6.4-14.3,14.3-14.3h5.2c4.4,0,7.9,3.5,7.9,7.9V423c0,7.9-6.4,14.3-14.3,14.3H245
	C240.7,437.3,237.1,433.7,237.1,429.4z"/>
<path fill="#FF9817" d="M294.1,462.7h69.5c4.3,0,7.8,3.5,7.8,7.8v5.3c0,7.8-6.4,14.2-14.2,14.2h-56.7c-7.8,0-14.2-6.4-14.2-14.2
	v-5.3C286.3,466.2,289.8,462.7,294.1,462.7z"/>
<path fill="#FF9817" d="M371.4,412.6v63.2c0,7.8-6.4,14.2-14.2,14.2h-5.3c-4.3,0-7.8-3.5-7.8-7.8V419c0-7.8,6.4-14.2,14.2-14.2h5.3
	C367.9,404.8,371.4,408.3,371.4,412.6z"/>
</svg>
